<svg width="32" height="42" viewBox="0 0 32 42" fill="none" xmlns="http://www.w3.org/2000/svg">
<g clip-path="url(#clip0_295_1103)">
<path d="M14.289 29.4954H7.23275C6.95204 29.4954 6.68282 29.3837 6.48432 29.185C6.28583 28.9863 6.17432 28.7167 6.17432 28.4357C6.17432 28.1546 6.28583 27.8851 6.48432 27.6863C6.68282 27.4876 6.95204 27.3759 7.23275 27.3759H14.289C14.5697 27.3759 14.8389 27.4876 15.0374 27.6863C15.2359 27.8851 15.3474 28.1546 15.3474 28.4357C15.3474 28.7167 15.2359 28.9863 15.0374 29.185C14.8389 29.3837 14.5697 29.4954 14.289 29.4954ZM17.8171 22.4306H7.23275C6.95204 22.4306 6.68282 22.319 6.48432 22.1202C6.28583 21.9215 6.17432 21.652 6.17432 21.3709C6.17432 21.0898 6.28583 20.8203 6.48432 20.6216C6.68282 20.4228 6.95204 20.3112 7.23275 20.3112H17.8171C18.0978 20.3112 18.367 20.4228 18.5655 20.6216C18.764 20.8203 18.8755 21.0898 18.8755 21.3709C18.8755 21.652 18.764 21.9215 18.5655 22.1202C18.367 22.319 18.0978 22.4306 17.8171 22.4306ZM21.3452 15.3659H7.23275C6.95204 15.3659 6.68282 15.2542 6.48432 15.0555C6.28583 14.8567 6.17432 14.5872 6.17432 14.3061C6.17432 14.0251 6.28583 13.7555 6.48432 13.5568C6.68282 13.3581 6.95204 13.2464 7.23275 13.2464H21.3452C21.6259 13.2464 21.8951 13.3581 22.0936 13.5568C22.2921 13.7555 22.4036 14.0251 22.4036 14.3061C22.4036 14.5872 22.2921 14.8567 22.0936 15.0555C21.8951 15.2542 21.6259 15.3659 21.3452 15.3659ZM19.5812 7.418C19.4408 7.42293 19.301 7.3989 19.1704 7.34739C19.0397 7.29588 18.921 7.218 18.8218 7.11859C18.7225 7.01919 18.6447 6.90039 18.5932 6.76959C18.5418 6.63878 18.5178 6.49878 18.5227 6.35828V1.05971C18.5227 0.77866 18.6342 0.509118 18.8327 0.310383C19.0312 0.111648 19.3004 0 19.5812 0C19.8619 0 20.1311 0.111648 20.3296 0.310383C20.5281 0.509118 20.6396 0.77866 20.6396 1.05971V6.35828C20.6445 6.49878 20.6205 6.63878 20.5691 6.76959C20.5176 6.90039 20.4398 7.01919 20.3405 7.11859C20.2413 7.218 20.1226 7.29588 19.992 7.34739C19.8613 7.3989 19.7215 7.42293 19.5812 7.418ZM8.99681 7.418C8.85649 7.42293 8.71665 7.3989 8.58601 7.34739C8.45536 7.29588 8.3367 7.218 8.23742 7.11859C8.13813 7.01919 8.06035 6.90039 8.0089 6.76959C7.95745 6.63878 7.93344 6.49878 7.93837 6.35828V1.05971C7.93837 0.77866 8.04989 0.509118 8.24838 0.310383C8.44688 0.111648 8.71609 0 8.99681 0C9.27752 0 9.54674 0.111648 9.74523 0.310383C9.94373 0.509118 10.0552 0.77866 10.0552 1.05971V6.35828C10.0602 6.49878 10.0362 6.63878 9.98472 6.76959C9.93327 6.90039 9.85548 7.01919 9.7562 7.11859C9.65691 7.218 9.53826 7.29588 9.40761 7.34739C9.27697 7.3989 9.13713 7.42293 8.99681 7.418Z" fill="#033EB2"/>
<path d="M14.7122 35.3238H2.82249C2.63535 35.3238 2.45587 35.2493 2.32354 35.1168C2.19121 34.9844 2.11687 34.8047 2.11687 34.6173V6.35825C2.11687 6.17088 2.19121 5.99119 2.32354 5.8587C2.45587 5.72621 2.63535 5.65178 2.82249 5.65178H25.7552C25.9424 5.65178 26.1219 5.72621 26.2542 5.8587C26.3865 5.99119 26.4609 6.17088 26.4609 6.35825V28.471H26.6373C27.0588 28.4597 27.4784 28.5317 27.8721 28.6829C28.129 28.7843 28.3675 28.9275 28.5777 29.1068V6.35825C28.5777 5.60878 28.2804 4.89 27.751 4.36004C27.2217 3.83008 26.5038 3.53235 25.7552 3.53235H2.82249C2.07392 3.53235 1.35601 3.83008 0.826688 4.36004C0.297368 4.89 0 5.60878 0 6.35825V34.6173C0 35.3668 0.297368 36.0855 0.826688 36.6155C1.35601 37.1455 2.07392 37.4432 2.82249 37.4432H15.9824L14.7122 35.3238Z" fill="#033EB2"/>
<path d="M21.0274 23.844C21.2707 23.844 21.5041 23.9407 21.6761 24.113C21.8481 24.2852 21.9448 24.5188 21.9448 24.7624V32.3217C21.9448 32.4809 22.0079 32.6337 22.1204 32.7463C22.2329 32.8589 22.3855 32.9222 22.5445 32.9222C22.7009 32.9137 22.8485 32.8477 22.9592 32.7369C23.0699 32.626 23.1358 32.4782 23.1443 32.3217V29.3191C23.4725 29.2802 23.804 29.2802 24.1322 29.3191C24.388 29.3311 24.6393 29.391 24.8731 29.4958C24.8731 29.4958 24.8731 29.4958 24.8731 29.8843V32.3217C24.8816 32.4782 24.9475 32.626 25.0582 32.7369C25.1689 32.8477 25.3165 32.9137 25.4729 32.9222C25.6354 32.9224 25.7918 32.8603 25.9099 32.7486C26.028 32.6369 26.0989 32.4841 26.1079 32.3217V30.4142C26.399 30.3552 26.6989 30.3552 26.99 30.4142C27.2136 30.5486 27.4061 30.7292 27.5545 30.944L27.8014 31.262V32.8515C27.8099 33.008 27.8758 33.1559 27.9865 33.2667C28.0972 33.3776 28.2449 33.4435 28.4012 33.452C28.5603 33.452 28.7128 33.3888 28.8253 33.2761C28.9378 33.1635 29.001 33.0108 29.001 32.8515V31.7212H29.4244C29.7425 31.7212 30.0476 31.8477 30.2726 32.0729C30.4975 32.2982 30.6239 32.6036 30.6239 32.9222L30.3064 36.2073C30.2691 36.6318 30.1364 37.0424 29.9183 37.4083L28.2248 40.3755C28.1685 40.4671 28.091 40.5437 27.9989 40.5991C27.9068 40.6544 27.8028 40.6867 27.6956 40.6934H20.2513C20.1398 40.6863 20.0322 40.6499 19.9393 40.5879C19.8464 40.5259 19.7714 40.4404 19.722 40.3402L18.2402 37.373L15.2061 32.3923C15.1264 32.2507 15.104 32.0839 15.1434 31.9262C15.1828 31.7686 15.2809 31.632 15.4177 31.5445C15.5234 31.4615 15.6539 31.4163 15.7882 31.4163C15.9225 31.4163 16.053 31.4615 16.1586 31.5445L19.087 34.4411C19.14 34.5012 19.2051 34.5494 19.2781 34.5824C19.3511 34.6154 19.4303 34.6324 19.5104 34.6324C19.5904 34.6324 19.6696 34.6154 19.7426 34.5824C19.8156 34.5494 19.8808 34.5012 19.9337 34.4411C19.9977 34.3922 20.0477 34.3272 20.0787 34.2528C20.1096 34.1784 20.1205 34.0971 20.1101 34.0172V24.7624C20.1101 24.5188 20.2068 24.2852 20.3788 24.113C20.5508 23.9407 20.7842 23.844 21.0274 23.844ZM23.1443 28.0475V24.7624C23.1443 24.2003 22.9213 23.6612 22.5243 23.2637C22.1273 22.8662 21.5889 22.6429 21.0274 22.6429C20.466 22.6429 19.9276 22.8662 19.5306 23.2637C19.1336 23.6612 18.9106 24.2003 18.9106 24.7624V32.8515L17.0407 30.944C16.87 30.771 16.6668 30.6336 16.4427 30.5399C16.2186 30.4461 15.9781 30.3978 15.7353 30.3978C15.4924 30.3978 15.252 30.4461 15.0279 30.5399C14.8038 30.6336 14.6005 30.771 14.4299 30.944C14.1384 31.2284 13.9518 31.6032 13.9006 32.0074C13.8493 32.4116 13.9364 32.8212 14.1476 33.1694L17.1818 38.1854L18.6283 41.1173C18.7781 41.4214 19.0089 41.678 19.2954 41.8588C19.5818 42.0396 19.9127 42.1375 20.2513 42.1417H27.872C28.1946 42.1451 28.5121 42.0617 28.7914 41.9001C29.0707 41.7386 29.3015 41.5048 29.4596 41.2233L31.1531 38.2561C31.4346 37.7419 31.6143 37.1782 31.6824 36.5958L31.9999 33.3107C32.034 32.995 32.0053 32.6756 31.9154 32.3711C31.8254 32.0665 31.6761 31.7829 31.4759 31.5365C31.2758 31.2901 31.0288 31.0859 30.7494 30.9357C30.4699 30.7855 30.1634 30.6923 29.8477 30.6614H28.8951L28.6482 30.3789C28.403 29.9322 28.0359 29.5646 27.5897 29.3191C27.1369 29.2161 26.6667 29.2161 26.2138 29.3191H26.0374C25.9059 28.993 25.6702 28.7197 25.367 28.542C25.0931 28.3792 24.7955 28.26 24.485 28.1888C24.0632 28.1363 23.6366 28.1363 23.2149 28.1888L23.1443 28.0475Z" fill="#033EB2"/>
</g>
<defs>
<clipPath id="clip0_295_1103">
<rect width="32" height="42" fill="white"/>
</clipPath>
</defs>
</svg>
